HIERARCHY
ROOT Hips
{
  OFFSET -45.8305 103.201 243.1
  CHANNELS 6 Xposition Yposition Zposition Zrotation Xrotation Yrotation
  JOINT RightUpLeg
  {
    OFFSET -8.9458 -8.66707 0.101652
    CHANNELS 3 Zrotation Xrotation Yrotation
    JOINT RightLeg
    {
      OFFSET 0 -44.4227 1.3727
      CHANNELS 3 Zrotation Xrotation Yrotation
      JOINT RightFoot
      {
        OFFSET 0.253549 -42.0924 -1.46059
        CHANNELS 3 Zrotation Xrotation Yrotation
        JOINT RightToes
        {
          OFFSET 0.04 -4.41509 8.4991
          CHANNELS 3 Zrotation Xrotation Yrotation
          End Site
          {
            OFFSET -0.08 -0.137448 9.77979
          }
        }
      }
    }
  }
  JOINT Spine
  {
    OFFSET 0 11.8905 0
    CHANNELS 3 Zrotation Xrotation Yrotation
    JOINT Spine1
    {
      OFFSET 0 25.6574 0.127663
      CHANNELS 3 Zrotation Xrotation Yrotation
      JOINT HEad
      {
        OFFSET 0 8.73416 0.011341
        CHANNELS 3 Zrotation Xrotation Yrotation
        End Site
        {
          OFFSET -0.29 12.7742 2.51395
        }
      }
      JOINT LeftShoulder1
      {
        OFFSET 8.99 -0.362252 -0.22
        CHANNELS 3 Zrotation Xrotation Yrotation
        JOINT LeftArm
        {
          OFFSET 10.2827 -0.00338 0.322123
          CHANNELS 3 Zrotation Xrotation Yrotation
          JOINT LeftForeArm
          {
            OFFSET 32.7669 0.099144 -1.42434
            CHANNELS 3 Zrotation Xrotation Yrotation
            JOINT LeftHand
            {
              OFFSET 27.5643 0.085362 1.02216
              CHANNELS 3 Zrotation Xrotation Yrotation
              End Site
              {
                OFFSET 16.7443 -0.6 1.50291
              }
            }
          }
        }
      }
      JOINT RightShoulder
      {
        OFFSET -8.99 -0.362252 -0.22
        CHANNELS 3 Zrotation Xrotation Yrotation
        JOINT RightArm
        {
          OFFSET -10.2827 -0.00338 0.322123
          CHANNELS 3 Zrotation Xrotation Yrotation
          JOINT RightForeArm
          {
            OFFSET -32.8971 0.099144 -1.42434
            CHANNELS 3 Zrotation Xrotation Yrotation
            JOINT RightHand
            {
              OFFSET -27.4921 0.085362 1.02216
              CHANNELS 3 Zrotation Xrotation Yrotation
              End Site
              {
                OFFSET -16.6312 -0.6 1.50291
              }
            }
          }
        }
      }
    }
  }
  JOINT LeftUpLeg
  {
    OFFSET 8.9458 -8.66707 0.101652
    CHANNELS 3 Zrotation Xrotation Yrotation
    JOINT LeftLeg
    {
      OFFSET 0 -44.4227 1.3727
      CHANNELS 3 Zrotation Xrotation Yrotation
      JOINT LeftFoot
      {
        OFFSET -0.253549 -42.0924 -1.46059
        CHANNELS 3 Zrotation Xrotation Yrotation
        JOINT LeftToes
        {
          OFFSET -0.04 -4.41509 8.4991
          CHANNELS 3 Zrotation Xrotation Yrotation
          End Site
          {
            OFFSET 0.08 -0.047448 9.77979
          }
        }
      }
    }
  }
}
MOTION
Frames:	15
Frame Time:	0.0166667
-41.845 99.7562 36.5199 2.64982 4.13655 172.258 4.55024 6.75447 -7.56147 -8.36737 47.9706 -9.02057 11.8099 5.46962 -1.14872 0.0462048 0.000533964 0.662642 5.89787 2.91433 -0.740029 2.38791 8.22298 -0.145665 -5.90129 -1.62588 8.92199 -4.96962e-016 0 3.18055e-015 -83.0066 -33.0682 -6.47958 -28.3714 9.12166 6.68417 0.368473 9.90896 -0.00117927 -11.3876 -0.139568 5.72276 107.303 -19.9361 32.886 13.7499 15.7669 25.4047 -0.369625 9.91382 0.00119886 -1.49857 -18.2743 -11.7847 -3.39129 25.0395 34.976 -32.4704 -12.5259 -2.50712 -1.3251e-012 9.95514e-013 -4.0234e-013 
-42.0028 99.8644 34.4194 2.11641 3.93319 172.24 3.43173 3.29042 -5.84267 -8.08754 52.764 -10.0934 9.93762 10.7558 -1.35907 0.0462048 0.000533964 0.662642 5.66662 3.02767 -0.809389 1.94449 8.34806 -0.126896 -6.29122 -1.41841 9.05999 0 7.95139e-016 -0 -84.1447 -31.8659 -9.15727 -28.3217 9.2734 6.10912 0.368473 9.90896 -0.00117927 -11.6414 -0.158703 5.65895 107.052 -20.5119 30.9975 14.1076 15.6105 23.8226 -0.369625 9.91382 0.00119886 -2.4365 -17.5452 -11.7284 -3.35493 25.6681 34.5552 -32.533 -13.5134 -2.80804 -1.32073e-012 9.89153e-013 -3.9916e-013 
-42.1378 100.067 32.4226 1.77431 3.57941 172.065 2.94596 -0.582381 -3.53939 -6.99652 57.344 -12.5786 7.79978 14.516 -1.40557 0.0462048 0.000533964 0.662642 5.47153 3.1423 -0.785656 1.84587 8.36782 -0.12123 -6.82353 -1.07352 9.29724 -5.96354e-016 -1.59028e-015 -0 -85.1614 -30.3353 -11.778 -28.4654 9.47327 5.18345 0.368473 9.90896 -0.00117927 -11.8755 -0.174795 5.5097 106.705 -20.9629 29.2373 14.4682 15.39 21.8664 -0.369625 9.91382 0.00119886 -3.04432 -16.6605 -11.5499 -3.21834 25.6858 34.2904 -32.7216 -14.2781 -3.05397 -1.3247e-012 9.95514e-013 -4.0234e-013 
-42.1752 100.432 30.3616 1.76264 3.38649 171.998 3.10911 -4.27083 -1.35311 -5.68889 61.6136 -15.4096 6.52691 13.7359 -1.19346 0.0462048 0.000533964 0.662642 5.48862 3.19359 -0.790621 2.01215 8.47548 -0.132911 -7.30123 -0.542597 9.47568 9.93923e-016 0 1.59028e-015 -85.7056 -28.2328 -14.1429 -28.8719 9.73236 3.82328 0.368473 9.90896 -0.00117927 -11.8201 -0.165213 5.22872 106.195 -21.5068 27.4816 14.8378 15.1258 19.6823 -0.369625 9.91382 0.00119886 -3.23869 -15.2032 -11.7201 -3.1322 25.1023 34.3314 -32.8923 -14.8153 -3.2358 -1.3251e-012 9.95514e-013 -4.0075e-013 
-42.1702 100.844 28.3498 1.87834 3.17674 171.914 3.68789 -7.98619 0.812019 -4.06557 65.1494 -18.4929 5.82131 11.5768 -0.944722 0.0462048 0.000533964 0.662642 5.49783 3.25105 -0.745971 2.33955 8.5941 -0.155221 -7.74497 0.0209664 9.63135 3.97569e-016 -3.18055e-015 -0 -86.008 -25.9912 -16.4541 -29.2883 10.0434 2.25658 0.368473 9.90896 -0.00117927 -11.6632 -0.146323 4.84305 105.599 -22.0691 25.7763 15.1948 14.8214 17.3596 -0.369625 9.91382 0.00119886 -3.22434 -13.6008 -11.8387 -2.98014 24.1796 34.3273 -33.1011 -15.2274 -3.38593 -1.3251e-012 9.89153e-013 -4.0234e-013 
-42.1712 101.126 26.5091 1.81298 2.80336 171.571 4.32002 -12.0024 2.22092 -4.88582 67.7031 -18.4499 5.8786 10.5572 -0.892503 0.0462048 0.000533964 0.662642 5.09595 3.39355 -0.549035 2.7038 8.73332 -0.189096 -8.22673 0.364417 9.90298 -1.98785e-015 0 -1.59028e-015 -86.3296 -24.1503 -18.9036 -29.4441 10.4214 0.667153 0.368473 9.90896 -0.00117927 -11.7355 -0.136126 4.50675 105.16 -22.5464 24.2633 15.4825 14.4937 14.9637 -0.369625 9.91382 0.00119886 -3.36451 -12.4035 -11.3865 -2.68029 23.456 33.8162 -33.4635 -15.7248 -3.57831 -1.33066e-012 9.92333e-013 -4.0075e-013 
-42.123 101.519 24.6465 2.01688 2.48558 171.591 5.24891 -15.5463 4.65328 -2.93053 68.9712 -21.4383 6.26496 9.59485 -0.895668 0.0462048 0.000533964 0.662642 5.00666 3.5284 -0.394604 3.08624 8.82661 -0.215792 -8.38558 0.836168 9.8212 -3.97569e-016 0 -0 -86.4256 -22.0704 -21.3753 -29.4719 10.8199 -0.894963 0.368473 9.90896 -0.00117927 -11.3381 -0.107125 3.79248 104.312 -23.2407 22.5313 15.8437 14.1624 12.7058 -0.369625 9.91382 0.00119886 -3.217 -10.8046 -11.1969 -2.34245 22.0736 33.2964 -33.6701 -15.9776 -3.68348 -1.32669e-012 9.92333e-013 -3.94389e-013 
-41.9366 102.307 22.5169 3.0056 2.46718 172.89 7.41553 -17.2994 9.83208 6.44446 67.5698 -32.8268 6.8627 8.5416 -0.911172 0.0462048 0.000533964 0.662642 6.01462 3.55527 -0.523009 3.35549 8.70968 -0.203546 -7.62222 1.91568 8.66921 9.93923e-016 -1.59028e-015 1.59028e-015 -85.8819 -19.0096 -23.7877 -29.4251 11.176 -2.22252 0.368473 9.90896 -0.00117927 -9.41354 -0.0136374 2.00631 102.102 -24.55 19.948 16.5481 13.8713 10.8532 -0.369625 9.91382 0.00119886 -2.1979 -7.94654 -12.358 -2.07948 19.1649 33.3478 -33.4079 -15.7195 -3.58405 -1.32868e-012 9.92333e-013 -4.0393e-013 
-41.7618 103.189 20.3982 4.30142 2.52124 174.342 9.14954 -18.6598 17.2988 19.4026 63.2455 -48.424 6.94743 7.11241 -0.885581 0.0462048 0.000533964 0.662642 7.54084 3.57605 -0.69536 3.72468 8.68535 -0.192232 -6.61371 2.97329 7.33336 -5.96354e-016 0 7.95139e-016 -85.1359 -15.9588 -26.2378 -29.3042 11.5628 -3.59761 0.368473 9.90896 -0.00117927 -7.35467 0.0725075 0.102073 99.6704 -26.0618 17.2274 17.2105 13.6142 9.29209 -0.369625 9.91382 0.00119886 -0.670732 -4.61722 -13.5909 -1.70297 15.4173 33.5006 -32.7999 -14.97 -3.31678 -1.32391e-012 9.92333e-013 -4.0234e-013 
-41.7793 103.996 18.5342 5.71219 2.47185 174.922 9.14102 -20.3963 28.4877 34.6003 53.7314 -66.0573 5.27663 4.66952 -0.699323 0.0462048 0.000533964 0.662642 9.5094 3.66258 -0.745193 4.51183 9.08947 -0.219957 -6.05567 3.37377 6.62257 -1.98785e-015 0 -7.95139e-016 -84.7882 -13.769 -28.8145 -29.0907 12.0484 -5.31544 0.368473 9.90896 -0.00117927 -6.4986 0.0765889 -1.02238 98.2197 -27.4206 15.0808 17.4521 13.3865 7.9687 -0.369625 9.91382 0.00119886 1.04831 -1.03713 -13.7123 -1.02197 10.5682 33.3665 -31.6562 -13.2508 -2.75783 -1.32669e-012 9.92333e-013 -3.9916e-013 
-41.8069 104.624 16.7814 6.91811 2.41783 175.244 9.0386 -21.3617 39.8937 42.2747 42.1339 -77.0721 3.33058 2.12216 -0.514947 0.0462048 0.000533964 0.662642 11.1942 3.80483 -0.695484 5.27177 9.65865 -0.26041 -5.60203 3.57121 6.04341 1.59028e-015 -1.59028e-015 -0 -84.4493 -11.8934 -31.3763 -28.8433 12.5628 -7.14013 0.368473 9.90896 -0.00117927 -5.99628 0.0514826 -1.89303 96.9895 -28.9023 13.0219 17.5103 13.2101 6.97295 -0.369625 9.91382 0.00119886 2.49156 2.11565 -13.585 -0.426037 6.40884 33.2919 -30.6603 -11.7842 -2.28968 -1.32152e-012 9.92333e-013 -3.97569e-013 
-41.7076 104.856 15.0984 7.48893 2.41243 175.597 8.63227 -22.7876 47.6452 43.4995 33.2732 -83.3545 1.92763 -0.297281 -0.435865 0.0462048 0.000533964 0.662642 11.7282 4.04926 -0.476568 5.62707 10.2769 -0.302426 -5.08468 3.86654 5.34108 -9.93923e-016 -1.59028e-015 -0 -83.8511 -10.0502 -33.8096 -28.6278 13.0672 -8.9436 0.368473 9.90896 -0.00117927 -5.39995 0.0263086 -2.79228 95.5118 -30.7214 10.7456 17.4802 13.1081 6.3951 -0.369625 9.91382 0.00119886 3.15055 3.74851 -13.7374 -0.29552 5.26149 33.088 -30.534 -12.0184 -2.34716 -1.31516e-012 9.93923e-013 -4.0393e-013 
-41.5269 104.866 13.422 7.55881 2.41377 175.926 9.46153 -23.1229 53.8935 39.0413 27.3319 -86.6224 1.70225 -1.19441 -0.505182 0.0462048 0.000533964 0.662642 11.4536 4.29804 -0.199592 5.69077 10.8379 -0.338391 -4.561 4.09598 4.61057 -2.98177e-016 1.59028e-015 -0 -83.0864 -8.37514 -36.1544 -28.4469 13.5512 -10.6889 0.368473 9.90896 -0.00117927 -4.82811 -0.00208884 -3.55301 93.8794 -32.6677 8.31396 17.4072 13.068 6.18083 -0.369625 9.91382 0.00119886 3.26559 4.79017 -13.7866 -0.327371 5.23049 32.7444 -30.7528 -12.8135 -2.5832 -1.32788e-012 9.87562e-013 -3.97569e-013 
-41.2665 104.837 11.7306 7.19804 2.35708 176.239 14.2343 -19.0998 62.6205 24.3364 25.2145 -88.9278 4.59495 3.13033 -1.00283 0.0462048 0.000533964 0.662642 10.5491 4.50721 0.0666054 5.48609 11.1945 -0.356881 -4.02368 4.14884 3.84318 -3.18055e-015 0 -3.97569e-016 -82.1252 -6.9111 -38.4033 -28.3551 13.9981 -12.2996 0.368473 9.90896 -0.00117927 -4.2242 -0.0265279 -4.06733 92.0204 -34.605 5.65242 17.3792 13.0894 6.36181 -0.369625 9.91382 0.00119886 3.05475 6.02586 -13.5131 -0.312774 4.59214 32.4986 -30.9021 -13.1805 -2.69077 -1.32391e-012 9.92333e-013 -4.0234e-013 
-40.9207 104.516 9.85793 6.17094 2.36385 176.638 17.7317 -17.8146 63.5817 9.98216 29.0249 -87.205 7.64167 5.99186 -1.33177 0.0462048 0.000533964 0.662642 8.64887 4.5619 0.264054 4.90185 11.3525 -0.357433 -3.5148 4.16571 3.09616 -9.93923e-017 0 -0 -81.0859 -5.62242 -40.5615 -28.2876 14.4019 -13.7599 0.368473 9.90896 -0.00117927 -3.66308 -0.049037 -4.43994 90.0394 -36.4901 2.87605 17.3467 13.148 6.77416 -0.369625 9.91382 0.00119886 2.02016 6.80651 -13.0465 -0.35123 5.20469 31.9409 -31.4163 -14.1108 -2.99743 -1.32748e-012 9.95514e-013 -3.9916e-013 
